<svg width="41" height="40" viewBox="0 0 41 40" fill="none" xmlns="http://www.w3.org/2000/svg">
<g id="Icons / Heart" clip-path="url(#clip0_19_264)">
<path id="Vector" d="M20.5017 7.5483C24.4167 4.0333 30.4667 4.14997 34.2383 7.9283C38.0083 11.7083 38.1383 17.7283 34.6317 21.655L20.4983 35.8083L6.36832 21.655C2.86166 17.7283 2.99332 11.6983 6.76166 7.9283C10.5367 4.15497 16.575 4.0283 20.5017 7.5483ZM31.8783 10.2833C29.3783 7.77997 25.345 7.6783 22.7283 10.0283L20.5033 12.025L18.2767 10.03C15.6517 7.67663 11.6267 7.77997 9.11999 10.2866C6.63666 12.77 6.51166 16.745 8.79999 19.3716L20.5 31.09L32.2 19.3733C34.49 16.745 34.365 12.775 31.8783 10.2833Z" fill="black"/>
</g>
<defs>
<clipPath id="clip0_19_264">
<rect width="40" height="40" fill="white" transform="translate(0.5)"/>
</clipPath>
</defs>
</svg>
