<svg width="57" height="59" viewBox="0 0 57 59" fill="none" xmlns="http://www.w3.org/2000/svg">
<g id="Logo 1">
<g id="Group">
<path id="Vector" d="M25.8811 43.7411C24.4922 39.9775 18.147 33.0222 14.1573 28.8931C13.7806 28.5041 14.2617 27.8854 14.7111 28.1807C19.7265 31.4427 28.3185 36.4998 32.2899 35.7406C35.1766 35.1875 39.8108 29.179 42.18 25.8607C42.475 25.4482 43.1059 25.7669 42.9652 26.2637C41.6354 30.9834 38.6987 40.9805 36.4157 45.8595C34.6728 49.5809 33.1387 52.7398 31.8315 55.3692H48.4118L44.4721 14.106C44.4721 11.5282 42.4478 9.43787 39.9515 9.43787H17.0576C14.5613 9.43787 12.537 11.5282 12.537 14.106L8.5882 55.3692H26.857C26.9205 50.8604 26.7435 46.0845 25.8811 43.7411ZM31.4412 28.4759C33.0343 28.4759 34.3233 29.807 34.3233 31.4521C34.3233 33.0972 33.0343 34.4283 31.4412 34.4283C29.848 34.4283 28.559 33.0972 28.559 31.4521C28.559 29.807 29.848 28.4759 31.4412 28.4759Z" fill="#FFAC25"/>
<path id="Vector_2" d="M22.8855 7.03818V13.178C22.8855 13.8295 23.3984 14.3591 24.0293 14.3591H25.1549V7.32877H31.9631L32.004 14.3591H33.0842C33.7197 14.3591 34.2326 13.8295 34.2326 13.1733V7.03818V5.38372C34.2326 4.90097 33.8558 4.51196 33.3883 4.51196H23.7252C23.2622 4.51196 22.8855 4.90097 22.8855 5.37903V7.03818Z" fill="#1A1A1A"/>
</g>
</g>
</svg>
