<svg width="41" height="40" viewBox="0 0 41 40" fill="none" xmlns="http://www.w3.org/2000/svg">
<g id="Icons / Shopping-Bag" clip-path="url(#clip0_19_295)">
<path id="Vector" d="M12.1667 13.3334V10.0001C12.1667 7.78994 13.0446 5.67033 14.6074 4.10752C16.1702 2.54472 18.2899 1.66675 20.5 1.66675C22.7101 1.66675 24.8298 2.54472 26.3926 4.10752C27.9554 5.67033 28.8333 7.78994 28.8333 10.0001V13.3334H33.8333C34.2754 13.3334 34.6993 13.509 35.0118 13.8216C35.3244 14.1341 35.5 14.5581 35.5 15.0001V35.0001C35.5 35.4421 35.3244 35.866 35.0118 36.1786C34.6993 36.4912 34.2754 36.6667 33.8333 36.6667H7.16667C6.72464 36.6667 6.30072 36.4912 5.98816 36.1786C5.67559 35.866 5.5 35.4421 5.5 35.0001V15.0001C5.5 14.5581 5.67559 14.1341 5.98816 13.8216C6.30072 13.509 6.72464 13.3334 7.16667 13.3334H12.1667ZM12.1667 16.6667H8.83333V33.3334H32.1667V16.6667H28.8333V20.0001H25.5V16.6667H15.5V20.0001H12.1667V16.6667ZM15.5 13.3334H25.5V10.0001C25.5 8.674 24.9732 7.40223 24.0355 6.46455C23.0979 5.52687 21.8261 5.00008 20.5 5.00008C19.1739 5.00008 17.9021 5.52687 16.9645 6.46455C16.0268 7.40223 15.5 8.674 15.5 10.0001V13.3334Z" fill="black"/>
</g>
<defs>
<clipPath id="clip0_19_295">
<rect width="40" height="40" fill="white" transform="translate(0.5)"/>
</clipPath>
</defs>
</svg>
