<svg width="41" height="40" viewBox="0 0 41 40" fill="none" xmlns="http://www.w3.org/2000/svg">
<g id="Icons / Truck" clip-path="url(#clip0_19_286)">
<path id="Vector" d="M15.4417 29.9999C15.2435 31.3904 14.5503 32.6627 13.4895 33.5832C12.4286 34.5036 11.0712 35.0104 9.66666 35.0104C8.26213 35.0104 6.90475 34.5036 5.84386 33.5832C4.78296 32.6627 4.08979 31.3904 3.89166 29.9999H2.16666V9.99992C2.16666 9.55789 2.34225 9.13397 2.65481 8.82141C2.96737 8.50885 3.3913 8.33325 3.83332 8.33325H27.1667C27.6087 8.33325 28.0326 8.50885 28.3452 8.82141C28.6577 9.13397 28.8333 9.55789 28.8333 9.99992V13.3333H33.8333L38.8333 20.0933V29.9999H35.4417C35.2435 31.3904 34.5503 32.6627 33.4895 33.5832C32.4286 34.5036 31.0712 35.0104 29.6667 35.0104C28.2621 35.0104 26.9047 34.5036 25.8439 33.5832C24.783 32.6627 24.0898 31.3904 23.8917 29.9999H15.4417ZM25.5 11.6666H5.49999V25.0833C6.15759 24.4119 6.96766 23.9094 7.86124 23.6184C8.75483 23.3275 9.70548 23.2568 10.6323 23.4122C11.5591 23.5677 12.4346 23.9448 13.1843 24.5114C13.9341 25.078 14.5358 25.8174 14.9383 26.6666H24.395C24.675 26.0783 25.05 25.5433 25.5 25.0833V11.6666ZM28.8333 21.6666H35.5V21.1916L32.1533 16.6666H28.8333V21.6666ZM29.6667 31.6666C30.3299 31.6666 30.966 31.4031 31.435 30.9341C31.904 30.4651 32.1675 29.829 32.1675 29.1658C32.1675 28.5025 31.904 27.8664 31.435 27.3974C30.966 26.9284 30.3299 26.6649 29.6667 26.6649C29.0034 26.6649 28.3673 26.9284 27.8983 27.3974C27.4293 27.8664 27.1658 28.5025 27.1658 29.1658C27.1658 29.829 27.4293 30.4651 27.8983 30.9341C28.3673 31.4031 29.0034 31.6666 29.6667 31.6666ZM12.1667 29.1666C12.1667 28.8383 12.102 28.5132 11.9764 28.2099C11.8507 27.9066 11.6666 27.631 11.4344 27.3988C11.2023 27.1667 10.9267 26.9825 10.6234 26.8569C10.3201 26.7313 9.99496 26.6666 9.66666 26.6666C9.33835 26.6666 9.01326 26.7313 8.70995 26.8569C8.40663 26.9825 8.13104 27.1667 7.89889 27.3988C7.66674 27.631 7.48259 27.9066 7.35696 28.2099C7.23132 28.5132 7.16666 28.8383 7.16666 29.1666C7.16666 29.8296 7.43005 30.4655 7.89889 30.9344C8.36773 31.4032 9.00361 31.6666 9.66666 31.6666C10.3297 31.6666 10.9656 31.4032 11.4344 30.9344C11.9033 30.4655 12.1667 29.8296 12.1667 29.1666Z" fill="black"/>
</g>
<defs>
<clipPath id="clip0_19_286">
<rect width="40" height="40" fill="white" transform="translate(0.5)"/>
</clipPath>
</defs>
</svg>
