<svg width="30" height="28" viewBox="0 0 30 28" fill="none" xmlns="http://www.w3.org/2000/svg">
<g id="Group">
<path id="Vector" fill-rule="evenodd" clip-rule="evenodd" d="M1.36535 27.3631H1.27481C1.27481 27.318 1.25213 27.2499 1.25213 27.2271C1.25213 27.2046 1.25213 27.1594 1.1841 27.1594H1.04804V27.3631H0.980005V26.8873H1.1841C1.27481 26.8873 1.34267 26.9101 1.34267 27.0005C1.34267 27.0685 1.31999 27.0914 1.29748 27.1137C1.32016 27.1365 1.34267 27.1592 1.34267 27.2046V27.2951C1.34267 27.318 1.34267 27.318 1.36535 27.318V27.3631ZM1.27481 27.0233C1.27481 26.9553 1.22945 26.9553 1.20677 26.9553H1.04804V27.0914H1.1841C1.22945 27.0914 1.27481 27.0685 1.27481 27.0233ZM1.66015 27.1139C1.66015 26.8421 1.43354 26.6151 1.13874 26.6151C0.866784 26.6151 0.640015 26.8421 0.640015 27.1139C0.640015 27.4085 0.866784 27.6354 1.13874 27.6354C1.43338 27.6353 1.66015 27.4085 1.66015 27.1139ZM1.59212 27.1139C1.59212 27.3633 1.38819 27.5446 1.13874 27.5446C0.889297 27.5446 0.708046 27.3631 0.708046 27.1139C0.708046 26.8873 0.889461 26.6832 1.13874 26.6832C1.38803 26.6832 1.59212 26.8873 1.59212 27.1139ZM29.5199 17.9558C29.5199 18.636 29.0892 18.953 28.3184 18.953H26.8452V18.2728H28.3184C28.4545 18.2728 28.5678 18.2503 28.6134 18.2051C28.6586 18.1596 28.7039 18.0916 28.7039 18.001C28.7039 17.9101 28.6587 17.8196 28.6134 17.7744C28.5678 17.7289 28.4773 17.7064 28.3412 17.7064C27.6387 17.6835 26.7545 17.7289 26.7545 16.7316C26.7545 16.2781 27.0491 15.7793 27.8425 15.7793H29.3612V16.4595H27.9557C27.82 16.4595 27.7291 16.4595 27.6611 16.5047C27.5931 16.5727 27.5479 16.6407 27.5479 16.7541C27.5479 16.8675 27.6159 16.9355 27.7064 16.981C27.7973 17.0036 27.888 17.0262 28.0014 17.0262H28.4093C28.84 17.0262 29.1121 17.1168 29.2935 17.2757C29.4292 17.4343 29.5199 17.6385 29.5199 17.9558ZM26.3236 17.2757C26.1422 17.1168 25.8701 17.0262 25.4394 17.0262H25.0316C24.9183 17.0262 24.8275 17.0034 24.7369 16.981C24.646 16.9355 24.5783 16.8675 24.5783 16.7541C24.5783 16.6407 24.6009 16.5727 24.6916 16.5047C24.7596 16.4595 24.8501 16.4595 24.9862 16.4595H26.3917V15.7793H24.873C24.0568 15.7793 23.7846 16.2781 23.7846 16.7316C23.7846 17.7287 24.6689 17.6835 25.3717 17.7064C25.5074 17.7064 25.5983 17.7289 25.6435 17.7744C25.6887 17.8196 25.7344 17.9101 25.7344 18.001C25.7344 18.0916 25.6889 18.1596 25.6435 18.2051C25.5755 18.2503 25.4849 18.2728 25.3489 18.2728H23.8754V18.953H25.3489C26.1194 18.953 26.5503 18.6358 26.5503 17.9558C26.5503 17.6385 26.4597 17.4343 26.3236 17.2757ZM23.422 18.2958H21.6315V17.661H23.3768V17.0266H21.6315V16.437H23.422V15.7797H20.8833V18.9531H23.422V18.2958ZM20.0671 15.9384C19.8177 15.8023 19.523 15.7795 19.1377 15.7795H17.3924V18.953H18.1629V17.7969H18.9791C19.2509 17.7969 19.4098 17.8198 19.5232 17.933C19.6593 18.0916 19.6592 18.3637 19.6592 18.5678V18.953H20.4071V18.3408C20.4071 18.0462 20.3846 17.9101 20.2939 17.7516C20.2258 17.6607 20.0901 17.5475 19.9087 17.4794C20.1125 17.4117 20.4528 17.1396 20.4528 16.6407C20.4526 16.2782 20.3166 16.0741 20.0671 15.9384ZM15.7601 15.7795H13.3345L12.3597 16.8223L11.4303 15.7795H8.37007V18.953H11.3851L12.3599 17.9101L13.2893 18.953H14.7628V17.8878H15.7149C16.3722 17.8878 17.0299 17.7064 17.0299 16.8223C17.0297 15.9609 16.3496 15.7795 15.7601 15.7795ZM19.455 17.0944C19.3418 17.1396 19.2284 17.1396 19.0923 17.1396L18.1629 17.1625V16.4368H19.0923C19.2284 16.4368 19.3644 16.4368 19.455 16.5048C19.5459 16.5503 19.6136 16.6409 19.6136 16.777C19.6136 16.913 19.5459 17.0264 19.455 17.0944ZM15.7601 17.253H14.7627V16.4368H15.7601C16.0322 16.4368 16.2135 16.5503 16.2135 16.8223C16.2135 17.0944 16.0321 17.253 15.7601 17.253ZM12.8358 17.3662L14.0145 16.1196V18.6812L12.8358 17.3662ZM10.9996 18.2958H9.11808V17.661H10.7955V17.0266H9.11808V16.437H11.0223L11.861 17.3664L10.9996 18.2958ZM27.4116 13.4899H26.3236L24.8955 11.1097V13.4899H23.3543L23.0593 12.7871H21.4726L21.1779 13.4899H20.2937C19.931 13.4899 19.455 13.3992 19.1832 13.1271C18.9338 12.8552 18.7977 12.4925 18.7977 11.9257C18.7977 11.4497 18.8657 11.019 19.2055 10.679C19.4322 10.4295 19.8403 10.3163 20.3616 10.3163H21.0869V10.9965H20.3616C20.0898 10.9965 19.9309 11.0418 19.7723 11.1779C19.6362 11.3139 19.5682 11.5632 19.5682 11.9032C19.5682 12.2432 19.6362 12.4926 19.7723 12.6514C19.8855 12.7646 20.0898 12.81 20.2935 12.81H20.6337L21.7217 10.3165H22.8552L24.1246 13.3087V10.3163H25.3035L26.641 12.5152V10.3163H27.4115V13.4899H27.4116ZM18.4123 10.3163H17.6418V13.4899H18.4123V10.3163ZM16.8028 10.4524C16.5533 10.3163 16.2815 10.3163 15.8962 10.3163H14.1506V13.4899H14.8986V12.3337H15.7146C15.9867 12.3337 16.1681 12.3564 16.2814 12.4698C16.4174 12.6285 16.3946 12.9007 16.3946 13.0819V13.4899H17.1651V12.8552C17.1651 12.5832 17.1426 12.4471 17.0294 12.2884C16.9613 12.1977 16.8253 12.0843 16.6667 12.0164C16.8705 11.9257 17.2108 11.6764 17.2108 11.1777C17.211 10.815 17.0521 10.611 16.8028 10.4524ZM13.6065 12.8326H11.8383V12.1978H13.5838V11.5405H11.8383V10.9738H13.6065V10.3165H11.0676V13.4901H13.6065V12.8326ZM10.5009 10.3163H9.25414L8.32471 12.4698L7.32725 10.3163H6.10319V13.3085L4.8111 10.3163H3.67774L2.31762 13.4899H3.13366L3.4283 12.7871H5.01503L5.30966 13.4899H6.8512V10.9965L7.96188 13.4899H8.61918L9.73003 10.9965V13.4899H10.5007V10.3163H10.5009ZM22.7875 12.1071L22.2659 10.8604L21.7447 12.1071H22.7875ZM16.2135 11.6086C16.1003 11.6766 15.9869 11.6766 15.8282 11.6766H14.8986V10.9739H15.828C15.9641 10.9739 16.1225 10.9739 16.2133 11.0193C16.3039 11.0873 16.3494 11.178 16.3494 11.3139C16.3494 11.4498 16.304 11.5631 16.2135 11.6086ZM3.70025 12.1071L4.22166 10.8604L4.74307 12.1071H3.70025ZM29.3387 0.364746H2.29478V11.7898L3.2242 9.68169H5.19628L5.4684 10.2031V9.68169H7.78063L8.30203 10.815L8.80076 9.68169H16.1681C16.508 9.68169 16.8026 9.74972 17.0295 9.93097V9.68169H19.047V9.93097C19.3868 9.74956 19.8175 9.68169 20.3164 9.68169H23.2406L23.5127 10.2031V9.68169H25.6662L25.9837 10.2031V9.68169H28.0916V14.1247H25.961L25.5531 13.4448V14.1247H22.9007L22.6061 13.3994H21.9485L21.6538 14.1247H20.2712C19.7271 14.1247 19.3189 13.9887 19.0471 13.8528V14.1247H15.7601V13.1046C15.7601 12.9685 15.7374 12.9459 15.6467 12.9459H15.5335V14.1246H9.18611V13.5578L8.9595 14.1246H7.62205L7.39545 13.5805V14.1246H4.83377L4.56181 13.3992H3.90435L3.60971 14.1246H2.29478V27.5219H29.3387V19.3837C29.0441 19.5197 28.6359 19.5877 28.2279 19.5877H26.2556V19.3156C26.029 19.4972 25.6208 19.5877 25.2356 19.5877H19.0243V18.5678C19.0243 18.4317 19.0018 18.4317 18.8882 18.4317H18.775V19.5877H16.7347V18.3864C16.3949 18.5449 16.0094 18.5449 15.6694 18.5449H15.4426V19.5877H12.9492L12.3599 18.9076L11.7026 19.5877H7.68992V15.1449H11.7703L12.3597 15.8247L12.9945 15.1449H15.7374C16.0546 15.1449 16.5762 15.1901 16.8028 15.4167V15.1449H19.2509C19.5003 15.1449 19.9766 15.1901 20.2937 15.4167V15.1449H23.9887V15.4168C24.1928 15.2354 24.5783 15.145 24.9182 15.145H26.9809V15.4168C27.2079 15.2583 27.525 15.145 27.9332 15.145H29.3387V0.364746Z" fill="#0077A6"/>
</g>
</svg>
