<svg width="34" height="28" viewBox="0 0 34 28" fill="none" xmlns="http://www.w3.org/2000/svg">
<g id="Group">
<path id="Vector" d="M33.1339 26.7533V26.8204H33.1966C33.2083 26.8206 33.2199 26.8177 33.2301 26.8119C33.2342 26.809 33.2375 26.8051 33.2397 26.8006C33.2419 26.7961 33.243 26.7912 33.2427 26.7862C33.243 26.7813 33.2419 26.7764 33.2397 26.772C33.2375 26.7676 33.2342 26.7639 33.2301 26.7612C33.22 26.7551 33.2083 26.7521 33.1966 26.7526H33.1339V26.7533ZM33.1972 26.7057C33.2241 26.7041 33.2507 26.7118 33.2725 26.7276C33.2812 26.7347 33.2881 26.7438 33.2927 26.7542C33.2973 26.7645 33.2994 26.7757 33.2988 26.787C33.2992 26.7967 33.2976 26.8064 33.2939 26.8154C33.2903 26.8244 33.2847 26.8326 33.2777 26.8393C33.2609 26.8539 33.2398 26.8626 33.2175 26.8643L33.3015 26.96H33.2369L33.1596 26.8649H33.1346V26.96H33.0805V26.7059H33.1981L33.1972 26.7057ZM33.1804 27.0477C33.2088 27.048 33.2369 27.0422 33.2629 27.0309C33.288 27.0201 33.3108 27.0047 33.3301 26.9854C33.3494 26.9661 33.3649 26.9433 33.3756 26.9182C33.3976 26.865 33.3976 26.8051 33.3756 26.7519C33.3647 26.7269 33.3493 26.7041 33.3301 26.6847C33.3108 26.6655 33.288 26.65 33.2629 26.6392C33.2367 26.6285 33.2087 26.6231 33.1804 26.6234C33.1517 26.6232 33.1231 26.6285 33.0965 26.6392C33.0708 26.6498 33.0475 26.6653 33.0278 26.6847C32.998 26.7152 32.978 26.7538 32.97 26.7956C32.962 26.8374 32.9665 26.8806 32.9829 26.9199C32.9931 26.9451 33.0084 26.9679 33.0278 26.9871C33.0475 27.0065 33.0708 27.022 33.0965 27.0326C33.123 27.0439 33.1516 27.0496 33.1804 27.0494V27.0477ZM33.1804 26.5623C33.2542 26.5622 33.3251 26.5912 33.3778 26.6429C33.4032 26.6678 33.4234 26.6974 33.4372 26.7301C33.4516 26.7637 33.459 26.7998 33.459 26.8363C33.459 26.8728 33.4516 26.909 33.4372 26.9425C33.423 26.9751 33.4029 27.0046 33.3778 27.0297C33.352 27.0544 33.322 27.0743 33.2893 27.0885C33.2549 27.1031 33.2178 27.1105 33.1804 27.1103C33.1426 27.1106 33.1051 27.1032 33.0703 27.0885C33.0371 27.0747 33.0069 27.0547 32.9811 27.0297C32.956 27.0037 32.9361 26.9732 32.9225 26.9397C32.9081 26.9061 32.9007 26.87 32.9007 26.8335C32.9007 26.7969 32.9081 26.7608 32.9225 26.7272C32.9363 26.6945 32.9565 26.6649 32.9819 26.6401C33.0073 26.6146 33.0377 26.5946 33.0711 26.5813C33.106 26.5666 33.1434 26.5592 33.1813 26.5594L33.1804 26.5623ZM7.46331 25.5809C7.46331 25.0964 7.78074 24.6983 8.29955 24.6983C8.79535 24.6983 9.12991 25.0793 9.12991 25.5809C9.12991 26.0826 8.79535 26.4635 8.29955 26.4635C7.78074 26.4635 7.46331 26.0655 7.46331 25.5809ZM9.69508 25.5809V24.202H9.09565V24.5379C8.90553 24.2897 8.61715 24.134 8.22498 24.134C7.45239 24.134 6.84607 24.74 6.84607 25.5816C6.84607 26.4232 7.45205 27.0292 8.22498 27.0292C8.61698 27.0292 8.90553 26.8733 9.09565 26.6253V26.96H9.69441V25.5809H9.69508ZM29.949 25.5809C29.949 25.0964 30.2664 24.6983 30.7854 24.6983C31.2817 24.6983 31.6158 25.0793 31.6158 25.5809C31.6158 26.0826 31.2817 26.4635 30.7854 26.4635C30.2666 26.4635 29.949 26.0655 29.949 25.5809ZM32.1814 25.5809V23.0952H31.5815V24.5379C31.3914 24.2897 31.103 24.134 30.7108 24.134C29.9382 24.134 29.3319 24.74 29.3319 25.5816C29.3319 26.4232 29.9379 27.0292 30.7108 27.0292C31.103 27.0292 31.3914 26.8733 31.5815 26.6253V26.96H32.1814V25.5809ZM17.1348 24.67C17.5211 24.67 17.7691 24.9121 17.8325 25.3386H16.4022C16.4661 24.9405 16.7078 24.67 17.1349 24.67H17.1348ZM17.1469 24.1325C16.339 24.1325 15.7738 24.7203 15.7738 25.5801C15.7738 26.4567 16.3617 27.0277 17.187 27.0277C17.6022 27.0277 17.9824 26.9241 18.317 26.6414L18.0232 26.1972C17.7921 26.3819 17.4979 26.4855 17.2213 26.4855C16.835 26.4855 16.4833 26.3067 16.3968 25.8104H18.4436C18.4495 25.7358 18.4556 25.6605 18.4556 25.5799C18.4495 24.7205 17.9181 24.1323 17.1465 24.1323L17.1469 24.1325ZM24.3837 25.5799C24.3837 25.0954 24.7011 24.6973 25.2199 24.6973C25.7157 24.6973 26.0503 25.0783 26.0503 25.5799C26.0503 26.0816 25.7157 26.4625 25.2199 26.4625C24.7011 26.4625 24.3835 26.0645 24.3835 25.5799H24.3837ZM26.6153 25.5799V24.202H26.0162V24.5379C25.8254 24.2897 25.5377 24.134 25.1455 24.134C24.3729 24.134 23.7666 24.74 23.7666 25.5816C23.7666 26.4232 24.3726 27.0292 25.1455 27.0292C25.5377 27.0292 25.8254 26.8733 26.0162 26.6253V26.96H26.6154V25.5809L26.6153 25.5799ZM20.9986 25.5799C20.9986 26.4162 21.5807 27.0275 22.4692 27.0275C22.8843 27.0275 23.161 26.9352 23.4601 26.6988L23.1722 26.2143C22.9472 26.376 22.7108 26.4625 22.45 26.4625C21.9715 26.4567 21.6196 26.1107 21.6196 25.5799C21.6196 25.0492 21.9715 24.7034 22.45 24.6973C22.7102 24.6973 22.9465 24.7838 23.1722 24.9456L23.4601 24.461C23.1605 24.2247 22.8838 24.1323 22.4692 24.1323C21.5807 24.1323 20.9986 24.7435 20.9986 25.5799ZM28.7261 24.1323C28.3803 24.1323 28.1551 24.2941 27.9994 24.5363V24.202H27.4053V26.9585H28.0054V25.4133C28.0054 24.9572 28.2014 24.7037 28.5933 24.7037C28.7216 24.7019 28.849 24.7254 28.9681 24.7731L29.1529 24.2081C29.0202 24.1558 28.8472 24.1328 28.7258 24.1328L28.7261 24.1323ZM12.6586 24.4212C12.3703 24.2311 11.9729 24.1328 11.5345 24.1328C10.8362 24.1328 10.3865 24.4676 10.3865 25.0153C10.3865 25.4647 10.7213 25.742 11.3377 25.8285L11.6208 25.8688C11.9495 25.915 12.1047 26.0015 12.1047 26.1572C12.1047 26.3703 11.8864 26.4919 11.4764 26.4919C11.0612 26.4919 10.7616 26.3592 10.5595 26.2035L10.2779 26.671C10.6066 26.9132 11.0217 27.0287 11.4714 27.0287C12.2675 27.0287 12.7288 26.6538 12.7288 26.129C12.7288 25.6444 12.3657 25.391 11.7658 25.3045L11.4833 25.2635C11.2238 25.2299 11.0159 25.1777 11.0159 24.9929C11.0159 24.7914 11.2119 24.6701 11.5407 24.6701C11.8926 24.6701 12.2332 24.8028 12.4001 24.9064L12.6596 24.4219L12.6586 24.4212ZM20.3931 24.1333C20.0473 24.1333 19.822 24.2951 19.667 24.5373V24.202H19.073V26.9585H19.6724V25.4133C19.6724 24.9572 19.8684 24.7037 20.2602 24.7037C20.3885 24.7019 20.5159 24.7254 20.6351 24.7731L20.8199 24.2081C20.6872 24.1558 20.5142 24.1328 20.3927 24.1328L20.3931 24.1333ZM15.2779 24.202H14.2977V23.3658H13.6917V24.202H13.1326V24.7499H13.6917V26.0074C13.6917 26.6469 13.9399 27.0279 14.6491 27.0279C14.9092 27.0279 15.2088 26.9472 15.399 26.8147L15.2258 26.3015C15.0469 26.4051 14.8509 26.4573 14.6951 26.4573C14.3954 26.4573 14.2977 26.2726 14.2977 25.996V24.7504H15.2779V24.202ZM6.31601 26.9592V25.2292C6.31601 24.5777 5.90083 24.1394 5.23153 24.1335C4.87967 24.1276 4.51672 24.2371 4.26261 24.6239C4.07248 24.3183 3.77285 24.1335 3.35162 24.1335C3.0572 24.1335 2.76949 24.22 2.54427 24.5428V24.202H1.94434V26.9585H2.54897V25.4301C2.54897 24.9516 2.81434 24.6973 3.22415 24.6973C3.6222 24.6973 3.82357 24.9568 3.82357 25.4241V26.9582H4.42955V25.4298C4.42955 24.9513 4.70617 24.697 5.10406 24.697C5.51336 24.697 5.70869 24.9565 5.70869 25.4237V26.9578L6.31601 26.9592Z" fill="#231F20"/>
<path id="Vector_2" d="M33.4758 17.7893V17.3862H33.3709L33.2494 17.6628L33.1287 17.3862H33.0234V17.7893H33.0979V17.4857L33.2115 17.7477H33.2887L33.4023 17.485V17.7893H33.4762H33.4758ZM32.8099 17.7893V17.4553H32.9443V17.3872H32.601V17.4553H32.7353V17.7893H32.8092H32.8099Z" fill="#F79410"/>
<path id="Vector_3" d="M21.5447 19.518H12.4607V3.19287H21.5448L21.5447 19.518Z" fill="#FF5F00"/>
<path id="Vector_4" d="M13.0366 11.3561C13.0366 8.04451 14.5872 5.09456 17.0017 3.19349C15.174 1.75236 12.9135 0.970205 10.586 0.973644C4.85258 0.973644 0.204956 5.62194 0.204956 11.3561C0.204956 17.0902 4.85258 21.7385 10.586 21.7385C12.9136 21.7419 15.1742 20.9598 17.0019 19.5186C14.5875 17.6179 13.0366 14.6678 13.0366 11.3561Z" fill="#EB001B"/>
<path id="Vector_5" d="M33.8001 11.3561C33.8001 17.0902 29.1525 21.7385 23.419 21.7385C21.0912 21.7419 18.8304 20.9598 17.0023 19.5186C19.4175 17.6176 20.9681 14.6678 20.9681 11.3561C20.9681 8.04434 19.4175 5.09456 17.0023 3.19349C18.8303 1.7524 21.0911 0.970265 23.4188 0.973644C29.1523 0.973644 33.7999 5.62194 33.7999 11.3561" fill="#F79E1B"/>
</g>
</svg>
