<svg width="40" height="26" viewBox="0 0 40 26" fill="none" xmlns="http://www.w3.org/2000/svg">
<g id="Group">
<path id="Vector" d="M38.0242 0.20765L28.1746 0.205078H28.1719C28.1642 0.205078 28.1569 0.206432 28.1494 0.206432C26.7963 0.247853 25.1109 1.3332 24.804 2.6714L20.1461 23.2822C19.8391 24.633 20.674 25.732 22.0173 25.7522H32.3649C33.6875 25.6868 34.9732 24.6139 35.2748 23.2909L39.9331 2.67993C40.2449 1.3156 39.39 0.20765 38.0242 0.20765Z" fill="#01798A"/>
<path id="Vector_2" d="M20.1464 23.2822L24.8044 2.67139C25.1113 1.33319 26.7967 0.247848 28.1498 0.206427L24.2335 0.20399L17.1777 0.202637C15.8208 0.230386 14.1136 1.32331 13.8067 2.67153L9.14736 23.2822C8.83927 24.633 9.67554 25.732 11.0179 25.7522H22.0177C20.6744 25.732 19.8394 24.633 20.1464 23.2822Z" fill="#024381"/>
<path id="Vector_3" d="M9.14718 23.2822L13.8065 2.67139C14.1134 1.32317 15.8206 0.230246 17.1775 0.202496L8.13859 0.200195C6.77412 0.200195 5.02469 1.30571 4.71281 2.67139L0.0534685 23.2822C0.0251776 23.408 0.00934007 23.5313 0 23.6518V24.034C0.0912349 25.0187 0.843178 25.7357 1.92405 25.7521H11.0178C9.67537 25.732 8.83909 24.633 9.14718 23.2822Z" fill="#DD0228"/>
<path id="Vector_4" d="M17.3682 15.2213H17.5393C17.6964 15.2213 17.8021 15.1684 17.8518 15.064L18.2963 14.3988H19.4866L19.2385 14.8363H20.6656L20.4845 15.5068H18.7862C18.5906 15.8011 18.3498 15.9393 18.0604 15.9229H17.1758L17.3682 15.2213ZM17.1727 16.182H20.2997L20.1003 16.9102H18.8427L18.6509 17.613H19.8745L19.6753 18.3413H18.4516L18.1673 19.3799C18.097 19.5536 18.1895 19.6316 18.4435 19.614H19.4407L19.2559 20.2908H17.3412C16.9783 20.2908 16.8538 20.0832 16.9676 19.6669L17.3311 18.3414H16.5489L16.7477 17.6132H17.5299L17.7217 16.9104H16.974L17.1727 16.182ZM22.1635 14.3937L22.1144 14.8201C22.1144 14.8201 22.7042 14.3773 23.2398 14.3773H25.2192L24.4623 17.1176C24.3995 17.4308 24.1302 17.5867 23.6548 17.5867H21.4112L20.8857 19.5108C20.8553 19.614 20.8982 19.6668 21.0113 19.6668H21.4529L21.2906 20.2641H20.1683C19.7376 20.2641 19.5583 20.1346 19.6294 19.8743L21.1145 14.3937H22.1635ZM23.8399 15.1684H22.073L21.8615 15.9079C21.8615 15.9079 22.1558 15.6955 22.6476 15.6879C23.138 15.6802 23.6977 15.6879 23.6977 15.6879L23.8399 15.1684ZM23.1996 16.8837C23.3302 16.9014 23.4035 16.8499 23.4121 16.7278L23.5203 16.3381H21.7508L21.6025 16.8837H23.1996ZM22.0062 17.7691H23.0262L23.0071 18.2105H23.2787C23.4159 18.2105 23.484 18.1665 23.484 18.0798L23.5644 17.7943H24.4122L24.299 18.2105C24.2032 18.5576 23.9494 18.7387 23.5368 18.7565H22.9935L22.9909 19.5108C22.981 19.6317 23.0901 19.6933 23.3152 19.6933H23.8258L23.6611 20.2908H22.4362C22.0927 20.307 21.9244 20.1435 21.928 19.7965L22.0062 17.7691ZM9.64649 10.743C9.50815 11.4209 9.18747 11.9415 8.69001 12.3111C8.19702 12.6746 7.56136 12.8569 6.78288 12.8569C6.05029 12.8569 5.51331 12.6708 5.17057 12.2973C4.93287 12.032 4.8147 11.695 4.8147 11.2875C4.8147 11.119 4.83487 10.9379 4.87507 10.7431L5.70444 6.74406H6.95696L6.13909 10.6976C6.1157 10.7969 6.10434 10.8987 6.10525 11.0007C6.1039 11.2032 6.15425 11.3691 6.25605 11.4987C6.4044 11.6912 6.64522 11.7866 6.98051 11.7866C7.36589 11.7866 7.68345 11.6924 7.92995 11.5023C8.17645 11.3137 8.33739 11.0459 8.40968 10.6975L9.23025 6.74365H10.4765L9.64649 10.743ZM14.907 9.16963H15.888L15.1195 12.7388H14.1404L14.907 9.16963ZM15.2157 7.86933H16.2055L16.0206 8.73566H15.031L15.2157 7.86933ZM16.7563 12.4671C16.4997 12.2218 16.3701 11.8911 16.3689 11.4711C16.3689 11.3993 16.3732 11.3177 16.3828 11.2284C16.3923 11.1378 16.4042 11.0498 16.4212 10.9681C16.5374 10.3883 16.7853 9.92807 17.1669 9.58845C17.5479 9.2476 18.0076 9.07664 18.546 9.07664C18.9867 9.07664 19.3363 9.19995 19.5923 9.44631C19.8482 9.69416 19.9763 10.0285 19.9763 10.4537C19.9763 10.5265 19.9708 10.6108 19.9613 10.7014C19.9503 10.7907 19.9367 10.8796 19.9204 10.9681C19.8067 11.539 19.5597 11.9943 19.178 12.3275C18.7962 12.6632 18.3378 12.8304 17.8034 12.8304C17.3607 12.8305 17.0123 12.7098 16.7563 12.4671ZM18.6258 11.7603C18.7988 11.573 18.9225 11.2887 18.9981 10.9103C19.0094 10.8511 19.0195 10.7895 19.0257 10.7279C19.0319 10.6676 19.0345 10.611 19.0345 10.5594C19.0345 10.3393 18.9784 10.1683 18.866 10.0476C18.7541 9.92564 18.5951 9.86526 18.3895 9.86526C18.1178 9.86526 17.8963 9.9607 17.7229 10.152C17.5481 10.3432 17.4241 10.6324 17.3461 11.0172C17.3354 11.0764 17.3266 11.1355 17.3185 11.1933C17.3123 11.2525 17.3104 11.3077 17.3116 11.358C17.3116 11.5769 17.3676 11.7455 17.4801 11.8648C17.5921 11.9844 17.7504 12.0434 17.9586 12.0434C18.2316 12.0433 18.4528 11.9489 18.6258 11.7603Z" fill="white"/>
<path id="Vector_5" d="M28.1719 0.205319L24.2332 0.204102L28.1495 0.206673C28.1568 0.206673 28.1642 0.205319 28.1719 0.205319Z" fill="#E02F41"/>
<path id="Vector_6" d="M24.2333 0.203986L17.2316 0.200195C17.214 0.200195 17.1958 0.201414 17.1775 0.202632L24.2333 0.203986Z" fill="#2E4F7D"/>
<path id="Vector_7" d="M26.341 15.251L26.5775 14.4185H27.7736L27.722 14.7242C27.722 14.7242 28.333 14.4185 28.7732 14.4185H30.2521L30.0171 15.251H29.7844L28.6689 19.1774H28.9015L28.6802 19.957H28.4475L28.3507 20.2953H27.1924L27.2891 19.957H25.0042L25.2268 19.1774H25.4557L26.5723 15.251H26.341ZM27.6314 15.251L27.3271 16.3136C27.3271 16.3136 27.848 16.1137 28.2969 16.0571C28.396 15.6862 28.5255 15.251 28.5255 15.251H27.6314ZM27.1862 16.8117L26.8807 17.9248C26.8807 17.9248 27.4579 17.6406 27.854 17.6168C27.9683 17.1866 28.0829 16.8119 28.0829 16.8119H27.1862V16.8117ZM27.41 19.1774L27.6387 18.3699H26.7462L26.5159 19.1774H27.41ZM30.3024 14.3669H31.4269L31.4747 14.7818C31.4671 14.8874 31.53 14.9379 31.6634 14.9379H31.8621L31.6611 15.6407H30.8347C30.5193 15.657 30.357 15.5364 30.3418 15.276L30.3024 14.3669ZM29.9729 15.8749H33.6149L33.4012 16.6295H32.2416L32.0428 17.3311H33.2014L32.9861 18.0844H31.696L31.4041 18.526H32.0357L32.1815 19.41C32.1989 19.498 32.2768 19.5408 32.4103 19.5408H32.6063L32.4003 20.2688H31.706C31.3462 20.2865 31.1604 20.1658 31.1451 19.9055L30.9777 19.098L30.4031 19.957C30.2672 20.1998 30.0584 20.3129 29.7768 20.2953H28.7166L28.9228 19.5671H29.2536C29.3895 19.5671 29.5026 19.5068 29.6043 19.3847L30.5038 18.0844H29.3443L29.5593 17.3311H30.8169L31.0169 16.6295H29.7581L29.9729 15.8749ZM10.8002 9.16805H11.6849L11.5837 9.68365L11.7107 9.53651C11.9975 9.22964 12.3458 9.07749 12.757 9.07749C13.1293 9.07749 13.3977 9.18565 13.5664 9.40318C13.7323 9.62071 13.7777 9.92135 13.699 10.3074L13.2116 12.7396H12.3023L12.7424 10.5351C12.7878 10.3074 12.7752 10.1377 12.7053 10.0281C12.6363 9.91878 12.5042 9.86477 12.3136 9.86477C12.0797 9.86477 11.8828 9.93759 11.7224 10.0823C11.5615 10.2282 11.4552 10.4307 11.403 10.6885L10.9974 12.7396H10.0863L10.8002 9.16805ZM20.9458 9.16805H21.8314L21.7308 9.68365L21.8563 9.53651C22.1434 9.22964 22.4929 9.07749 22.9029 9.07749C23.2752 9.07749 23.544 9.18565 23.7114 9.40318C23.8764 9.62071 23.924 9.92135 23.8436 10.3074L23.358 12.7396H22.4476L22.8879 10.5351C22.9331 10.3074 22.9204 10.1377 22.8512 10.0281C22.7795 9.91878 22.6499 9.86477 22.4601 9.86477C22.2261 9.86477 22.0301 9.93759 21.8678 10.0823C21.7068 10.2282 21.5999 10.4307 21.5497 10.6885L21.1421 12.7396H20.2322L20.9458 9.16805ZM25.3225 6.95459H27.8931C28.3872 6.95459 28.7696 7.06654 29.0323 7.2865C29.2938 7.50931 29.4247 7.82863 29.4247 8.24487V8.25746C29.4247 8.33665 29.4196 8.42599 29.412 8.52277C29.3989 8.62105 29.3822 8.71881 29.3618 8.81584C29.2485 9.36663 28.9857 9.8094 28.5796 10.1451C28.1719 10.4796 27.6892 10.6481 27.1334 10.6481H25.7549L25.3286 12.7395H24.1351L25.3225 6.95459ZM25.965 9.64223H27.1081C27.406 9.64223 27.6425 9.57292 27.8151 9.43593C27.9862 9.29759 28.0994 9.08629 28.1619 8.79959C28.1719 8.74666 28.1783 8.69888 28.1859 8.65489C28.1897 8.61347 28.1947 8.57178 28.1947 8.53171C28.1947 8.32663 28.1218 8.17827 27.9758 8.08514C27.83 7.99066 27.6011 7.94558 27.2842 7.94558H26.3134L25.965 9.64223ZM34.767 13.4301C34.3896 14.2324 34.0301 14.7001 33.8189 14.9176C33.6074 15.1328 33.1886 15.6333 32.18 15.5955L32.2671 14.9833C33.1158 14.7216 33.5747 13.5431 33.8365 13.0213L33.5245 9.17807L34.181 9.16927H34.7318L34.7911 11.5801L35.8233 9.16927H36.8686L34.767 13.4301ZM31.8445 9.45976L31.4293 9.74524C30.9955 9.40575 30.5994 9.19567 29.8349 9.55032C28.7935 10.0332 27.9233 13.737 30.7907 12.5171L30.9541 12.7108L32.0822 12.7397L32.823 9.37434L31.8445 9.45976ZM31.2029 11.2996C31.0217 11.8342 30.617 12.1875 30.3 12.0869C29.9831 11.9888 29.8698 11.4732 30.0536 10.9374C30.2347 10.4016 30.6422 10.0495 30.9565 10.1501C31.2734 10.2483 31.3878 10.7638 31.2029 11.2996Z" fill="white"/>
</g>
</svg>
