<svg width="38" height="22" viewBox="0 0 38 22" fill="none" xmlns="http://www.w3.org/2000/svg">
<g id="Group">
<path id="Vector" fill-rule="evenodd" clip-rule="evenodd" d="M3.40186 21.0459C10.8467 17.8554 21.2929 14.9634 35.128 17.8591L35.273 14.35C20.6763 12.7563 10.2026 17.4053 3.40186 20.7V21.0459Z" fill="#E7A83A"/>
<path id="Vector_2" fill-rule="evenodd" clip-rule="evenodd" d="M11.187 11.793L14.4137 1.15387H17.2927L14.0659 11.793H11.187ZM9.89998 1.15677L7.31017 5.66672C6.6509 6.8479 6.26554 7.44451 6.08022 8.19094H6.0408C6.08666 7.24467 5.95468 6.08299 5.94223 5.42641L5.65627 1.15677H0.809936L0.760132 1.44294C2.00523 1.44294 2.74357 2.06839 2.94673 3.34773L3.89134 11.793H6.87397L12.9048 1.15677H9.89998ZM32.2891 11.793L32.2096 10.2107L28.6146 10.2078L27.8794 11.7928H24.7538L30.4213 1.17399H34.2578L35.2176 11.7928H32.2891V11.793ZM31.959 5.51731C31.927 4.73103 31.9002 3.66377 31.9538 3.01798H31.9112C31.7361 3.54611 30.9834 5.13216 30.6524 5.91221L29.5812 8.24427H32.1055L31.959 5.51731ZM20.3152 12.0954C18.2826 12.0954 16.9337 11.4506 15.9707 10.8758L17.3421 8.78133C18.2066 9.26484 18.8854 9.82285 20.4472 9.82285C20.9494 9.82285 21.4333 9.69232 21.7081 9.21649C22.1086 8.52442 21.6157 8.15214 20.491 7.51548L19.9357 7.1544C18.2685 6.01514 17.5474 4.93315 18.3322 3.04434C18.8344 1.83618 20.159 0.92041 22.3441 0.92041C23.8511 0.92041 25.2639 1.57222 26.0871 2.20908L24.5104 4.05826C23.7071 3.40853 23.0411 3.07982 22.2792 3.07982C21.6715 3.07982 21.21 3.31411 21.0507 3.63015C20.7508 4.22427 21.1476 4.62934 22.0237 5.17324L22.684 5.59326C24.7081 6.8699 25.1904 8.20858 24.683 9.46011C23.8106 11.6143 22.1023 12.0954 20.3152 12.0954ZM36.0051 2.79947H35.8154V1.64609H36.2531C36.5316 1.64609 36.6737 1.74363 36.6737 1.9777C36.6737 2.18647 36.5453 2.27279 36.3726 2.2923L36.6957 2.79947H36.4814L36.1834 2.30641H36.0051V2.79947ZM36.2166 2.14475C36.3589 2.14475 36.4841 2.13085 36.4841 1.96359C36.4841 1.82435 36.3475 1.80754 36.2336 1.80754H36.0049V2.14475H36.2166ZM36.211 3.24521C35.6123 3.24521 35.186 2.79677 35.186 2.20327C35.186 1.57637 35.6594 1.16134 36.211 1.16134C36.7573 1.16134 37.2307 1.57637 37.2307 2.20327C37.2307 2.82997 36.7573 3.24521 36.211 3.24521ZM36.211 1.3425C35.7598 1.3425 35.4089 1.69611 35.4089 2.20327C35.4089 2.67683 35.7154 3.06405 36.211 3.06405C36.6567 3.06405 37.0078 2.71314 37.0078 2.20327C37.0078 1.69611 36.6567 1.3425 36.211 1.3425Z" fill="#1D5B99"/>
</g>
</svg>
